<mxfile host="65bd71144e">
    <diagram id="_DZc8Zb0CNoM_-257idC" name="Top Down">
        <mxGraphModel dx="1074" dy="660" grid="1" gridSize="10" guides="1" tooltips="1" connect="1" arrows="1" fold="1" page="1" pageScale="1" pageWidth="827" pageHeight="1169" math="0" shadow="0">
            <root>
                <mxCell id="0"/>
                <mxCell id="1" parent="0"/>
                <mxCell id="5LLvvGwcvibRs2L-bnVo-1" value="" style="edgeStyle=orthogonalEdgeStyle;html=1;" edge="1" parent="1" source="5LLvvGwcvibRs2L-bnVo-3" target="5LLvvGwcvibRs2L-bnVo-18">
                    <mxGeometry relative="1" as="geometry"/>
                </mxCell>
                <mxCell id="5LLvvGwcvibRs2L-bnVo-3" value="Input" style="rounded=1;whiteSpace=wrap;html=1;" vertex="1" parent="1">
                    <mxGeometry x="310" y="220" width="120" height="60" as="geometry"/>
                </mxCell>
                <mxCell id="5LLvvGwcvibRs2L-bnVo-4" style="edgeStyle=none;html=1;" edge="1" parent="1" source="5LLvvGwcvibRs2L-bnVo-7" target="5LLvvGwcvibRs2L-bnVo-14">
                    <mxGeometry relative="1" as="geometry"/>
                </mxCell>
                <mxCell id="5LLvvGwcvibRs2L-bnVo-5" style="edgeStyle=orthogonalEdgeStyle;html=1;entryX=0.5;entryY=0;entryDx=0;entryDy=0;rounded=0;" edge="1" parent="1" source="5LLvvGwcvibRs2L-bnVo-7" target="5LLvvGwcvibRs2L-bnVo-3">
                    <mxGeometry relative="1" as="geometry">
                        <Array as="points">
                            <mxPoint x="620" y="190"/>
                            <mxPoint x="370" y="190"/>
                        </Array>
                    </mxGeometry>
                </mxCell>
                <mxCell id="5LLvvGwcvibRs2L-bnVo-6" style="edgeStyle=orthogonalEdgeStyle;html=1;rounded=0;" edge="1" parent="1" source="5LLvvGwcvibRs2L-bnVo-7" target="5LLvvGwcvibRs2L-bnVo-10">
                    <mxGeometry relative="1" as="geometry">
                        <Array as="points">
                            <mxPoint x="620" y="190"/>
                            <mxPoint x="870" y="190"/>
                        </Array>
                    </mxGeometry>
                </mxCell>
                <mxCell id="5LLvvGwcvibRs2L-bnVo-7" value="Area and Perimeter" style="rounded=1;whiteSpace=wrap;html=1;" vertex="1" parent="1">
                    <mxGeometry x="560" y="100" width="120" height="60" as="geometry"/>
                </mxCell>
                <mxCell id="5LLvvGwcvibRs2L-bnVo-8" value="" style="edgeStyle=orthogonalEdgeStyle;html=1;" edge="1" parent="1" source="5LLvvGwcvibRs2L-bnVo-10" target="5LLvvGwcvibRs2L-bnVo-15">
                    <mxGeometry relative="1" as="geometry"/>
                </mxCell>
                <mxCell id="5LLvvGwcvibRs2L-bnVo-10" value="Output" style="rounded=1;whiteSpace=wrap;html=1;" vertex="1" parent="1">
                    <mxGeometry x="810" y="220" width="120" height="60" as="geometry"/>
                </mxCell>
                <mxCell id="5LLvvGwcvibRs2L-bnVo-14" value="Process" style="rounded=1;whiteSpace=wrap;html=1;" vertex="1" parent="1">
                    <mxGeometry x="560" y="220" width="120" height="60" as="geometry"/>
                </mxCell>
                <mxCell id="5LLvvGwcvibRs2L-bnVo-15" value="" style="rounded=1;whiteSpace=wrap;html=1;" vertex="1" parent="1">
                    <mxGeometry x="810" y="360" width="120" height="60" as="geometry"/>
                </mxCell>
                <mxCell id="5LLvvGwcvibRs2L-bnVo-18" value="" style="rounded=1;whiteSpace=wrap;html=1;" vertex="1" parent="1">
                    <mxGeometry x="310" y="360" width="120" height="60" as="geometry"/>
                </mxCell>
                <mxCell id="5LLvvGwcvibRs2L-bnVo-21" value="Get Radius" style="rounded=0;whiteSpace=wrap;html=1;" vertex="1" parent="1">
                    <mxGeometry x="310" y="360" width="120" height="60" as="geometry"/>
                </mxCell>
                <mxCell id="5LLvvGwcvibRs2L-bnVo-24" value="Show Circumference" style="rounded=0;whiteSpace=wrap;html=1;" vertex="1" parent="1">
                    <mxGeometry x="810" y="360" width="120" height="60" as="geometry"/>
                </mxCell>
                <mxCell id="5LLvvGwcvibRs2L-bnVo-26" value="Input" style="rounded=0;whiteSpace=wrap;html=1;" vertex="1" parent="1">
                    <mxGeometry x="310" y="220" width="120" height="60" as="geometry"/>
                </mxCell>
                <mxCell id="5LLvvGwcvibRs2L-bnVo-31" style="edgeStyle=none;html=1;entryX=0.5;entryY=0;entryDx=0;entryDy=0;" edge="1" parent="1" source="5LLvvGwcvibRs2L-bnVo-27" target="5LLvvGwcvibRs2L-bnVo-30">
                    <mxGeometry relative="1" as="geometry"/>
                </mxCell>
                <mxCell id="5LLvvGwcvibRs2L-bnVo-27" value="Process" style="rounded=0;whiteSpace=wrap;html=1;" vertex="1" parent="1">
                    <mxGeometry x="560" y="220" width="120" height="60" as="geometry"/>
                </mxCell>
                <mxCell id="5LLvvGwcvibRs2L-bnVo-28" value="Output" style="rounded=0;whiteSpace=wrap;html=1;" vertex="1" parent="1">
                    <mxGeometry x="810" y="220" width="120" height="60" as="geometry"/>
                </mxCell>
                <mxCell id="5LLvvGwcvibRs2L-bnVo-29" value="Circumference&amp;nbsp;" style="rounded=0;whiteSpace=wrap;html=1;" vertex="1" parent="1">
                    <mxGeometry x="560" y="100" width="120" height="60" as="geometry"/>
                </mxCell>
                <mxCell id="5LLvvGwcvibRs2L-bnVo-30" value="Circumference = tau * radius" style="rounded=0;whiteSpace=wrap;html=1;" vertex="1" parent="1">
                    <mxGeometry x="560" y="360" width="120" height="60" as="geometry"/>
                </mxCell>
            </root>
        </mxGraphModel>
    </diagram>
    <diagram id="VeDtbEjDI0ghX3-zGdeA" name="Flow Chart">
        <mxGraphModel dx="1074" dy="660" grid="1" gridSize="10" guides="1" tooltips="1" connect="1" arrows="1" fold="1" page="1" pageScale="1" pageWidth="827" pageHeight="1169" math="0" shadow="0">
            <root>
                <mxCell id="uMb09kLgnlT-KgUNqAt1-0"/>
                <mxCell id="uMb09kLgnlT-KgUNqAt1-1" parent="uMb09kLgnlT-KgUNqAt1-0"/>
                <mxCell id="LWOOIehnj9QhIwqlsqKU-0" style="edgeStyle=none;html=1;entryX=0.5;entryY=0;entryDx=0;entryDy=0;" edge="1" parent="uMb09kLgnlT-KgUNqAt1-1" source="YuxJJCx9IDvfO1UOcmKX-0" target="YuxJJCx9IDvfO1UOcmKX-2">
                    <mxGeometry relative="1" as="geometry"/>
                </mxCell>
                <mxCell id="YuxJJCx9IDvfO1UOcmKX-0" value="Start" style="ellipse;whiteSpace=wrap;html=1;" vertex="1" parent="uMb09kLgnlT-KgUNqAt1-1">
                    <mxGeometry x="350" y="60" width="120" height="80" as="geometry"/>
                </mxCell>
                <mxCell id="LWOOIehnj9QhIwqlsqKU-3" style="edgeStyle=none;html=1;entryX=0.5;entryY=0;entryDx=0;entryDy=0;" edge="1" parent="uMb09kLgnlT-KgUNqAt1-1" source="YuxJJCx9IDvfO1UOcmKX-1" target="YuxJJCx9IDvfO1UOcmKX-3">
                    <mxGeometry relative="1" as="geometry"/>
                </mxCell>
                <mxCell id="YuxJJCx9IDvfO1UOcmKX-1" value="Display Circumference" style="shape=parallelogram;perimeter=parallelogramPerimeter;whiteSpace=wrap;html=1;fixedSize=1;" vertex="1" parent="uMb09kLgnlT-KgUNqAt1-1">
                    <mxGeometry x="350" y="420" width="120" height="60" as="geometry"/>
                </mxCell>
                <mxCell id="LWOOIehnj9QhIwqlsqKU-1" style="edgeStyle=none;html=1;" edge="1" parent="uMb09kLgnlT-KgUNqAt1-1" source="YuxJJCx9IDvfO1UOcmKX-2" target="YuxJJCx9IDvfO1UOcmKX-4">
                    <mxGeometry relative="1" as="geometry"/>
                </mxCell>
                <mxCell id="YuxJJCx9IDvfO1UOcmKX-2" value="Ask for Radius" style="shape=parallelogram;perimeter=parallelogramPerimeter;whiteSpace=wrap;html=1;fixedSize=1;" vertex="1" parent="uMb09kLgnlT-KgUNqAt1-1">
                    <mxGeometry x="350" y="190" width="120" height="60" as="geometry"/>
                </mxCell>
                <mxCell id="YuxJJCx9IDvfO1UOcmKX-3" value="Stop" style="ellipse;whiteSpace=wrap;html=1;" vertex="1" parent="uMb09kLgnlT-KgUNqAt1-1">
                    <mxGeometry x="350" y="530" width="120" height="80" as="geometry"/>
                </mxCell>
                <mxCell id="LWOOIehnj9QhIwqlsqKU-2" style="edgeStyle=none;html=1;" edge="1" parent="uMb09kLgnlT-KgUNqAt1-1" source="YuxJJCx9IDvfO1UOcmKX-4" target="YuxJJCx9IDvfO1UOcmKX-1">
                    <mxGeometry relative="1" as="geometry"/>
                </mxCell>
                <mxCell id="YuxJJCx9IDvfO1UOcmKX-4" value="&lt;span style=&quot;color: rgb(0, 0, 0); font-family: helvetica; font-size: 12px; font-style: normal; font-weight: 400; letter-spacing: normal; text-align: center; text-indent: 0px; text-transform: none; word-spacing: 0px; background-color: rgb(248, 249, 250); display: inline; float: none;&quot;&gt;Circumference = tau * radius&lt;/span&gt;" style="rounded=0;whiteSpace=wrap;html=1;" vertex="1" parent="uMb09kLgnlT-KgUNqAt1-1">
                    <mxGeometry x="350" y="310" width="120" height="60" as="geometry"/>
                </mxCell>
            </root>
        </mxGraphModel>
    </diagram>
</mxfile>